<?xml version="1.0" standalone="no"?>
<!DOCTYPE svg PUBLIC "-//W3C//DTD SVG 20010904//EN"
 "http://www.w3.org/TR/2001/REC-SVG-20010904/DTD/svg10.dtd">
<svg version="1.0" xmlns="http://www.w3.org/2000/svg"
 width="377.000000pt" height="377.000000pt" viewBox="0 0 377.000000 377.000000"
 preserveAspectRatio="xMidYMid meet">
<metadata>
Created by potrace 1.14, written by Peter Selinger 2001-2017
</metadata>
<g transform="translate(0.000000,377.000000) scale(0.100000,-0.100000)"
fill="#000000" stroke="none">
<path d="M682 3110 c-48 -20 -36 -80 20 -104 18 -8 59 -26 91 -40 66 -29 161
-114 207 -186 17 -26 88 -191 159 -366 71 -175 166 -406 211 -513 109 -258
268 -676 305 -801 18 -61 139 -377 152 -397 9 -13 25 -23 38 -23 38 0 89 111
254 546 143 378 570 1394 618 1473 86 139 199 240 308 276 73 25 115 59 115
96 0 53 -40 57 -335 30 -74 -7 -158 -7 -255 0 -369 26 -390 24 -390 -29 0 -37
22 -56 106 -92 81 -34 127 -69 151 -113 25 -45 24 -219 -1 -302 -17 -57 -454
-1186 -462 -1194 -2 -2 -7 -1 -10 2 -4 4 -110 280 -236 614 -256 680 -264 709
-235 828 23 93 52 128 145 173 59 28 79 44 86 65 8 21 6 31 -7 45 -15 14 -38
17 -155 17 -75 0 -191 -6 -257 -13 -90 -9 -145 -9 -220 -1 -145 15 -376 20
-403 9z"/>
</g>
</svg>
